<?xml version="1.0" standalone="no"?>
<!DOCTYPE svg PUBLIC "-//W3C//DTD SVG 20010904//EN"
 "http://www.w3.org/TR/2001/REC-SVG-20010904/DTD/svg10.dtd">
<svg version="1.0" xmlns="http://www.w3.org/2000/svg"
 width="423.000000pt" height="590.000000pt" viewBox="0 0 423.000000 590.000000"
 preserveAspectRatio="xMidYMid meet">

<g transform="translate(0.000000,590.000000) scale(0.100000,-0.100000)"
fill="#000000" stroke="none">
<path d="M1241 5885 c-136 -38 -259 -141 -301 -252 -27 -71 -32 -123 -70 -643
-26 -357 -85 -1057 -160 -1915 -11 -126 -29 -338 -40 -470 -29 -346 -24 -323
-69 -335 -89 -24 -295 -62 -408 -75 -68 -8 -136 -21 -153 -30 -34 -18 -46 -49
-31 -86 18 -50 106 -175 156 -224 87 -85 238 -144 370 -145 l51 0 11 -86 c22
-158 102 -278 228 -339 30 -15 55 -31 55 -36 0 -5 -14 -29 -32 -54 -21 -29
-65 -67 -126 -107 -102 -67 -218 -171 -226 -203 -7 -24 27 -83 52 -92 9 -3 40
-24 69 -45 142 -108 300 -105 454 8 l61 46 47 -20 c102 -43 395 -103 421 -87
6 4 26 -7 45 -24 37 -32 188 -123 269 -162 48 -23 50 -27 67 -88 16 -62 47
-114 79 -138 16 -11 16 -20 0 -123 -9 -60 -14 -110 -10 -110 4 0 11 26 15 57
34 284 146 720 256 996 79 198 189 392 289 507 l47 55 42 235 c38 211 44 260
52 475 16 434 53 651 150 863 70 156 206 306 338 376 39 20 71 35 71 33 0 -2
-20 -47 -44 -98 -92 -195 -123 -333 -89 -399 36 -68 175 -106 338 -91 l59 6
33 80 c52 127 52 142 -1 -150 -65 -360 -96 -658 -96 -930 0 -350 44 -527 161
-651 58 -63 125 -164 134 -204 7 -32 25 -51 25 -27 0 33 -74 158 -136 227 -81
92 -99 127 -130 249 -49 191 -49 567 0 952 24 184 84 549 92 558 7 8 15 -6 68
-125 29 -66 88 -227 131 -359 92 -287 161 -465 215 -560 62 -108 116 -225 129
-277 19 -81 14 -195 -14 -288 -33 -111 -47 -194 -95 -580 -42 -332 -67 -481
-101 -605 -28 -105 -80 -357 -75 -363 7 -7 10 4 36 133 12 61 32 151 45 200
41 155 63 281 100 580 49 392 70 526 101 631 36 124 40 177 19 270 -20 92 -50
164 -105 250 -69 110 -159 339 -278 714 -27 85 -77 217 -111 292 l-62 136 30
171 c36 199 36 203 12 257 -22 47 -74 74 -144 73 -36 0 -147 -26 -236 -54
l-24 -8 6 84 c4 46 29 399 57 784 27 385 53 732 56 770 7 80 -4 153 -37 240
-40 106 -160 204 -290 235 -42 10 -116 15 -804 60 -342 23 -836 57 -930 65
-37 3 -80 -1 -114 -10z m304 -130 c113 -6 443 -25 1025 -60 367 -23 405 -30
500 -100 56 -41 101 -104 130 -182 l20 -55 -25 -421 c-14 -232 -34 -552 -45
-712 -11 -159 -24 -377 -29 -484 l-10 -193 -51 -51 c-153 -150 -252 -388 -301
-727 -6 -41 -14 -194 -19 -340 -9 -249 -12 -280 -53 -512 l-45 -247 -42 -48
c-61 -69 -149 -205 -200 -311 l-45 -91 -35 4 c-19 3 -309 32 -645 66 -335 33
-629 64 -653 70 -155 34 -281 173 -342 378 -27 89 -27 97 29 696 22 237 45
484 50 550 6 66 24 266 40 445 17 179 40 429 51 555 11 127 24 273 30 325 10
90 55 599 85 965 19 231 45 312 128 402 68 74 129 95 257 87 41 -2 129 -6 195
-9z m2107 -2066 c26 -14 51 -68 52 -114 1 -56 -46 -298 -61 -310 -6 -5 -26
-46 -43 -90 -18 -44 -37 -86 -43 -94 -9 -11 -35 -13 -122 -8 -234 12 -289 72
-236 257 20 71 66 184 109 270 25 50 32 57 81 73 106 35 215 42 263 16z
m-3018 -1451 c-3 -13 -13 -130 -24 -261 -11 -131 -23 -243 -26 -249 -9 -15
-141 -1 -218 22 -70 22 -165 81 -212 131 -18 19 -55 70 -83 114 -41 64 -51 87
-49 115 4 47 25 56 188 75 74 8 191 28 260 44 161 37 168 37 164 9z m336
-1007 c39 -11 437 -64 835 -111 l260 -32 84 -44 c46 -25 86 -43 89 -40 7 8 6
9 -63 46 l-60 31 75 -6 c41 -4 79 -11 84 -16 5 -4 -2 -37 -16 -76 -52 -139
-115 -367 -153 -556 -14 -65 -27 -123 -31 -128 -16 -27 -74 73 -89 152 -16 85
59 266 152 369 30 33 50 60 45 60 -6 0 -35 -27 -65 -61 -62 -68 -120 -177
-138 -259 -7 -30 -14 -57 -15 -59 -5 -6 -194 98 -266 146 -38 24 -68 50 -68
56 0 7 7 57 15 112 17 116 19 158 6 135 -5 -8 -14 -57 -20 -108 -15 -123 -21
-132 -91 -132 -75 0 -390 78 -390 96 0 3 13 16 29 30 16 13 36 45 45 71 16 47
22 193 8 193 -4 0 -7 -35 -8 -77 -1 -92 -27 -161 -71 -190 -15 -10 -51 -36
-78 -58 -109 -87 -240 -116 -348 -75 -31 12 -79 39 -107 61 -27 21 -54 39 -59
39 -15 0 -51 51 -51 72 0 32 28 64 108 125 150 115 211 148 226 124 12 -19 -9
-43 -89 -101 -63 -45 -91 -60 -117 -60 -44 0 -77 -34 -84 -86 -4 -35 -3 -37 7
-14 6 14 15 35 20 48 9 24 53 46 80 39 9 -3 54 24 105 62 92 68 113 103 80
130 -13 11 -10 18 17 57 33 47 46 51 107 35z"/>
<path d="M113 2155 c-36 -15 -66 -65 -60 -98 3 -18 5 -17 12 11 11 46 57 82
106 82 21 0 39 5 39 10 0 14 -60 12 -97 -5z"/>
<path d="M591 3384 c-27 -34 -26 -47 2 -109 13 -27 27 -72 30 -99 6 -44 53
-144 62 -134 2 2 -8 27 -22 56 -27 56 -38 147 -24 200 7 23 13 27 39 26 35 -2
35 10 1 19 -27 7 -59 -25 -59 -60 0 -32 -13 -21 -28 25 -22 64 23 106 88 84
16 -6 30 -7 30 -3 0 11 -36 21 -72 21 -17 0 -34 -9 -47 -26z"/>
<path d="M3285 2540 c-13 -5 -3 -9 34 -14 54 -7 111 -31 164 -68 40 -29 45
-15 5 15 -69 51 -161 82 -203 67z"/>
</g>
</svg>
