<?xml version="1.0" standalone="no"?>
<!DOCTYPE svg PUBLIC "-//W3C//DTD SVG 20010904//EN"
 "http://www.w3.org/TR/2001/REC-SVG-20010904/DTD/svg10.dtd">
<svg version="1.0" xmlns="http://www.w3.org/2000/svg"
 width="494.000000pt" height="505.000000pt" viewBox="0 0 494.000000 505.000000"
 preserveAspectRatio="xMidYMid meet">

<g transform="translate(0.000000,505.000000) scale(0.100000,-0.100000)"
fill="#000000" stroke="none">
<path d="M3085 4635 c-38 -14 -76 -32 -82 -42 -18 -24 -16 -98 2 -113 23 -19
122 -6 149 19 12 12 34 21 48 21 24 0 28 -6 43 -55 8 -30 20 -92 26 -138 5
-45 17 -104 24 -131 8 -27 15 -58 15 -67 0 -26 -31 -31 -81 -14 -59 21 -98 13
-154 -34 -43 -36 -52 -39 -123 -43 -76 -5 -122 -21 -223 -78 -20 -11 -43 -18
-51 -15 -26 10 -50 67 -56 131 -4 58 -2 68 23 104 25 36 27 45 21 97 -18 173
-29 201 -94 246 -43 30 -123 50 -164 42 -15 -4 -52 -26 -81 -50 l-53 -43 2
-118 c2 -134 10 -171 48 -236 35 -60 37 -149 4 -172 -36 -26 -73 -19 -145 27
-94 60 -123 69 -183 56 -55 -12 -70 -7 -136 46 -39 31 -49 32 -179 22 l-30 -2
2 143 c2 96 8 161 19 198 16 55 17 56 46 50 17 -3 37 -6 44 -6 8 0 14 -7 14
-15 0 -17 65 -22 75 -5 4 6 7 40 8 76 2 55 -1 68 -18 80 -53 39 -181 44 -214
8 -10 -11 -27 -42 -38 -70 -11 -28 -52 -99 -91 -157 -78 -119 -110 -199 -119
-302 l-6 -71 129 -131 c71 -72 143 -137 159 -146 17 -8 76 -18 138 -22 124 -9
119 -5 136 -112 14 -90 51 -194 104 -292 l42 -76 -1 -175 c0 -198 -16 -283
-65 -361 -19 -30 -34 -75 -45 -130 -8 -46 -31 -138 -50 -204 -31 -111 -34
-131 -34 -255 0 -151 16 -236 51 -284 20 -26 24 -43 24 -111 1 -58 8 -102 27
-160 21 -64 27 -106 31 -210 6 -132 21 -203 59 -278 28 -57 59 -210 61 -308
l2 -86 -50 -73 c-51 -74 -100 -110 -148 -110 -14 0 -31 -7 -38 -16 -11 -14
-10 -19 11 -36 21 -17 35 -20 90 -15 36 3 91 15 122 27 46 17 66 19 105 12 96
-17 124 7 105 90 -17 76 -44 321 -44 398 0 36 8 90 18 120 31 98 24 176 -30
335 l-49 140 7 139 c5 108 11 149 27 185 11 25 24 67 29 94 9 42 64 136 82
137 3 0 21 -24 38 -53 18 -28 40 -61 50 -72 26 -28 75 -176 89 -265 7 -50 24
-102 52 -158 l41 -84 7 -166 c9 -187 14 -205 94 -326 35 -52 51 -89 66 -156
12 -48 21 -100 21 -116 0 -16 4 -44 10 -62 7 -25 5 -48 -10 -94 -10 -33 -16
-66 -13 -74 3 -8 24 -18 47 -24 22 -6 85 -22 139 -37 77 -21 105 -25 134 -17
55 13 54 37 -1 58 -52 20 -95 65 -133 139 -39 77 -51 136 -64 302 -6 82 -13
154 -16 158 -3 5 -9 79 -13 165 -7 131 -12 169 -34 229 -15 42 -26 94 -26 123
0 28 -7 82 -15 119 -16 67 -16 69 10 136 20 55 25 85 25 164 0 100 -17 223
-45 326 -42 155 -55 197 -88 292 -30 85 -36 117 -38 195 -2 128 8 203 36 268
13 30 33 88 45 128 15 53 32 85 59 115 60 67 81 102 106 180 35 107 72 185 93
196 10 5 43 13 73 17 92 12 146 43 234 135 44 46 108 111 143 144 65 64 71 79
48 124 -8 15 -20 50 -27 77 -19 81 -73 185 -133 259 -31 39 -63 86 -72 105 -9
19 -27 50 -41 68 -21 28 -29 32 -71 31 -26 0 -78 -11 -117 -24z"/>
</g>
</svg>
