<?xml version="1.0" standalone="no"?>
<!DOCTYPE svg PUBLIC "-//W3C//DTD SVG 20010904//EN"
 "http://www.w3.org/TR/2001/REC-SVG-20010904/DTD/svg10.dtd">
<svg version="1.0" xmlns="http://www.w3.org/2000/svg"
 width="1244.000000pt" height="1280.000000pt" viewBox="0 0 1244.000000 1280.000000"
 preserveAspectRatio="xMidYMid meet">

<g transform="translate(0.000000,1280.000000) scale(0.100000,-0.100000)"
fill="#000000" stroke="none">
<path d="M1161 12780 c-13 -11 -34 -20 -47 -20 -13 0 -63 -20 -111 -45 -70
-36 -97 -45 -138 -45 -60 0 -297 -76 -343 -110 -23 -17 -52 -25 -114 -31 -54
-5 -123 -22 -198 -48 -107 -37 -118 -44 -162 -93 l-48 -53 1 -235 c0 -129 4
-257 9 -285 10 -60 41 -238 69 -390 61 -329 217 -912 361 -1345 65 -196 229
-651 247 -685 6 -11 32 -74 58 -140 84 -211 95 -236 204 -460 140 -287 205
-405 320 -579 14 -22 64 -79 109 -128 89 -93 125 -113 186 -101 59 11 241 75
283 99 25 14 71 28 117 35 94 13 220 50 305 89 35 17 74 30 88 30 33 0 126 24
243 62 128 42 155 69 165 162 18 167 -33 574 -115 911 -84 349 -116 473 -152
605 -22 79 -41 147 -43 150 -14 23 -54 209 -60 277 -6 79 -6 82 18 98 27 17
172 55 212 55 40 0 48 -18 121 -285 30 -111 58 -178 102 -251 16 -27 33 -71
37 -99 4 -27 15 -81 26 -120 11 -38 35 -140 54 -225 57 -251 65 -276 92 -302
33 -31 47 -59 84 -170 41 -126 94 -263 185 -480 30 -73 73 -178 96 -233 44
-108 153 -359 168 -387 9 -17 16 -29 39 -77 6 -10 41 -81 80 -157 88 -177 271
-554 271 -561 0 -7 219 -488 264 -581 20 -40 36 -74 36 -76 0 -3 26 -60 58
-128 102 -215 172 -408 192 -530 11 -72 30 -150 62 -263 61 -215 85 -316 117
-485 27 -145 61 -460 61 -569 0 -89 -1 -91 -26 -97 -14 -4 -46 -2 -72 4 -26 6
-83 18 -127 27 -44 9 -107 23 -140 30 -33 8 -109 19 -170 26 -60 6 -114 14
-120 17 -5 3 -102 9 -215 13 -200 8 -223 11 -375 55 -27 8 -66 19 -85 24 -44
12 -318 12 -385 0 -214 -38 -357 -92 -470 -178 -87 -66 -131 -109 -180 -177
-48 -67 -130 -225 -140 -270 -4 -17 -14 -50 -23 -75 -20 -53 -21 -299 -2 -415
6 -38 15 -104 21 -145 5 -41 19 -109 30 -150 75 -276 85 -300 162 -386 46 -50
52 -63 114 -214 19 -47 49 -116 67 -155 18 -38 36 -79 40 -91 13 -43 151 -293
231 -419 45 -71 85 -136 90 -144 4 -7 2 -30 -5 -51 -12 -35 -10 -42 14 -82 14
-23 49 -90 77 -148 l52 -105 5 -135 c3 -86 0 -157 -8 -195 -16 -77 -27 -89
-458 -455 -147 -125 -178 -188 -195 -394 l-11 -129 38 -33 c42 -36 123 -77
175 -89 18 -4 53 -16 77 -26 41 -19 66 -20 437 -17 269 2 398 7 408 14 8 6 34
18 59 27 99 35 266 95 290 105 14 6 68 27 120 47 124 48 297 139 365 192 l55
43 0 68 c-1 95 -13 137 -54 182 -22 25 -36 50 -36 66 0 33 -33 186 -61 279
-21 73 -42 143 -77 260 -58 192 -78 246 -124 322 -35 57 -55 105 -68 160 -44
190 -78 264 -133 287 -18 7 -38 20 -46 29 -20 24 -48 241 -62 469 -12 208 -8
268 17 268 23 0 302 -147 369 -195 78 -55 151 -92 220 -110 30 -7 59 -16 63
-19 11 -6 125 -38 272 -75 209 -53 290 -71 323 -71 18 -1 61 -7 97 -15 36 -8
157 -24 270 -37 181 -19 258 -22 650 -21 550 0 702 13 1110 94 58 11 135 29
172 40 36 10 72 19 80 19 12 0 89 22 198 56 25 8 72 21 104 29 71 19 150 62
226 123 66 54 281 162 322 162 16 0 31 -6 34 -15 10 -26 -15 -434 -36 -574
-18 -130 -20 -135 -52 -161 -47 -39 -107 -186 -124 -300 -4 -28 -29 -84 -64
-145 -31 -55 -67 -131 -78 -170 -12 -38 -40 -129 -62 -201 -22 -72 -40 -136
-40 -144 0 -7 -8 -38 -19 -69 -23 -69 -61 -237 -61 -270 0 -13 -16 -44 -36
-68 -44 -53 -54 -87 -54 -180 l0 -73 51 -40 c101 -80 305 -178 559 -269 80
-29 159 -59 177 -67 17 -7 37 -14 45 -14 7 -1 31 -9 53 -20 37 -18 65 -19 418
-20 l377 0 88 30 c134 46 168 62 218 103 l36 30 -7 120 c-8 139 -29 214 -78
284 -31 44 -212 210 -366 336 -36 28 -96 82 -135 119 l-70 66 -12 109 c-14
118 -5 232 22 307 8 22 18 50 21 60 6 19 39 77 96 170 l29 46 -21 26 c-34 44
-28 88 27 173 93 145 123 197 176 301 46 91 80 165 178 390 47 108 67 139 139
210 80 79 99 113 138 245 65 225 102 461 104 657 2 124 -1 153 -21 218 -27 87
-60 168 -79 191 -7 8 -13 20 -13 26 0 5 -14 32 -32 59 -110 170 -267 288 -468
352 -151 48 -216 57 -420 57 -159 0 -203 -3 -235 -16 -92 -38 -293 -69 -455
-69 -52 0 -124 -5 -160 -11 -36 -6 -114 -17 -175 -24 -117 -15 -220 -34 -350
-65 -148 -36 -158 -29 -150 103 29 448 58 623 175 1037 24 85 41 168 45 225
10 141 74 326 227 650 49 105 102 217 118 250 51 109 110 245 110 254 0 5 7
14 15 21 8 7 15 18 15 26 0 21 99 232 305 649 192 390 227 465 335 730 32 77
80 194 107 260 27 66 66 165 87 220 21 55 47 122 57 149 11 27 19 54 19 62 0
22 40 106 64 135 26 30 43 74 74 184 11 39 47 160 80 270 33 110 63 214 67
230 3 17 12 37 19 45 48 58 96 180 151 388 21 79 46 153 55 165 l18 21 103
-24 c139 -33 150 -44 143 -142 -6 -75 -25 -161 -69 -308 -26 -87 -106 -387
-131 -495 -7 -33 -21 -85 -29 -115 -22 -80 -102 -478 -120 -595 -21 -141 -31
-419 -16 -472 6 -24 24 -52 40 -66 35 -29 195 -82 306 -102 44 -8 114 -30 156
-49 88 -41 193 -71 295 -86 40 -5 90 -20 115 -34 53 -29 227 -91 286 -101 57
-9 100 13 180 94 56 56 160 202 230 321 83 142 271 519 323 650 10 25 44 106
75 180 67 158 88 214 190 495 121 334 202 584 289 896 60 211 109 356 236 689
161 424 183 486 211 583 59 203 63 310 14 392 -42 73 -107 108 -311 171 -99
30 -273 84 -389 119 -115 36 -284 88 -375 116 -91 28 -187 57 -214 65 -27 7
-57 20 -66 29 -12 11 -39 15 -92 15 l-76 0 -44 -52 c-40 -48 -114 -151 -145
-203 -117 -196 -344 -689 -432 -937 -16 -48 -35 -95 -41 -105 -10 -17 -153
-414 -180 -498 -18 -58 -107 -203 -129 -210 -19 -6 -214 43 -265 66 -26 12
-29 19 -41 92 -4 24 -19 53 -40 75 -33 37 -35 37 -111 37 l-77 0 -31 44 c-54
76 -75 86 -169 83 l-83 -2 -51 49 c-68 65 -104 73 -177 37 -64 -31 -71 -32
-130 -5 -82 36 -141 6 -188 -98 -27 -61 -29 -63 -66 -63 -20 0 -75 7 -122 15
-47 9 -134 22 -195 30 -60 8 -139 19 -175 24 -103 16 -659 69 -835 81 -623 40
-1577 38 -2065 -5 -91 -8 -226 -19 -300 -25 -241 -19 -758 -81 -865 -103 -38
-8 -102 -18 -141 -21 -77 -7 -95 2 -107 55 -10 42 -50 91 -91 112 -38 20 -41
20 -85 3 -76 -29 -87 -29 -147 -1 -76 36 -110 29 -179 -36 l-52 -49 -83 0
c-89 0 -143 -21 -155 -60 -3 -10 -15 -30 -27 -45 -19 -25 -24 -26 -83 -20
-100 11 -144 -26 -165 -136 -6 -29 -14 -57 -19 -62 -13 -13 -231 -77 -262 -77
-14 0 -33 8 -41 18 -27 31 -97 154 -109 191 -52 165 -181 515 -264 721 -76
188 -227 528 -255 575 -9 17 -45 83 -79 148 -65 125 -101 178 -189 290 l-54
67 -77 0 c-61 -1 -81 -5 -100 -20z m5479 -1800 c275 -11 796 -44 950 -61 460
-49 819 -101 831 -120 13 -19 6 -52 -26 -129 -64 -149 -32 -390 67 -519 30
-39 28 -53 -79 -485 -30 -121 -55 -222 -55 -225 -1 -3 4 -26 11 -51 14 -49 21
-25 -81 -275 -115 -278 -241 -537 -380 -783 -60 -105 -95 -154 -134 -190 -73
-66 -181 -134 -207 -130 -20 3 -22 8 -20 66 1 35 15 111 32 170 48 172 51 187
67 305 8 62 19 135 23 162 10 55 -2 199 -24 307 -18 84 -54 172 -107 260 -53
90 -102 132 -174 152 -138 38 -186 75 -267 201 -24 39 -72 102 -105 142 -33
40 -73 93 -87 117 -15 25 -53 69 -84 99 -50 45 -73 58 -152 85 -190 63 -372
65 -638 6 -85 -18 -158 -31 -163 -28 -15 10 -202 -17 -263 -38 -92 -32 -190
-101 -295 -207 -100 -101 -151 -178 -216 -330 -66 -151 -70 -197 -63 -606 1
-38 -2 -101 -5 -140 -9 -86 20 -248 57 -321 15 -29 53 -74 93 -110 74 -66 88
-89 159 -255 68 -160 60 -197 -50 -238 -73 -27 -125 -27 -183 3 -90 45 -150
60 -192 47 -65 -19 -93 -13 -181 39 -105 63 -261 215 -329 321 -108 168 -326
593 -403 789 -15 36 -47 115 -73 175 -66 158 -69 167 -56 216 9 35 7 63 -12
158 -13 64 -40 211 -61 328 l-37 212 20 38 c72 133 92 183 103 253 15 98 6
193 -27 292 l-26 80 24 25 c29 28 108 42 543 92 800 93 1589 128 2275 101z
m271 -3020 c4 -14 7 -46 8 -72 1 -54 -7 -58 -64 -31 -38 18 -41 27 -24 70 24
63 67 81 80 33z"/>
</g>
</svg>
