<?xml version="1.0" standalone="no"?>
<!DOCTYPE svg PUBLIC "-//W3C//DTD SVG 20010904//EN"
 "http://www.w3.org/TR/2001/REC-SVG-20010904/DTD/svg10.dtd">
<svg version="1.0" xmlns="http://www.w3.org/2000/svg"
 width="512.000000pt" height="512.000000pt" viewBox="0 0 512.000000 512.000000"
 preserveAspectRatio="xMidYMid meet">

<g transform="translate(0.000000,512.000000) scale(0.100000,-0.100000)"
fill="#000000" stroke="none">
<path d="M2410 5105 c-95 -19 -208 -65 -286 -118 -100 -67 -1844 -1816 -1902
-1908 -114 -179 -110 -345 11 -456 25 -23 68 -53 95 -67 60 -30 192 -66 244
-66 l38 0 2 -1122 3 -1123 23 -46 c37 -75 87 -125 160 -161 l67 -33 627 -3
628 -3 0 896 0 895 440 0 440 0 0 -895 0 -896 628 3 627 3 67 33 c73 36 123
86 160 161 l23 46 3 1123 2 1122 39 0 c54 0 180 34 241 65 74 38 144 106 170
167 19 44 22 65 18 133 -5 94 -38 171 -117 275 -27 36 -449 464 -938 951 -949
947 -937 937 -1088 989 -139 49 -293 61 -425 35z m312 -322 c31 -12 78 -35
105 -53 68 -46 1784 -1763 1822 -1824 17 -28 31 -54 31 -58 0 -5 -17 -17 -37
-26 -30 -13 -81 -18 -238 -22 l-200 -5 -5 -1240 -5 -1240 -447 -3 -448 -2 0
787 0 788 -24 50 c-29 61 -86 117 -146 144 -43 20 -64 21 -570 21 -506 0 -527
-1 -570 -21 -60 -27 -117 -83 -146 -144 l-24 -50 0 -788 0 -787 -447 2 -448 3
-5 1240 -5 1240 -200 5 c-157 4 -208 9 -237 22 -21 9 -38 24 -38 32 0 8 19 38
41 68 63 81 1715 1732 1788 1788 95 71 190 102 306 97 58 -3 110 -11 147 -24z"/>
</g>
</svg>
