<?xml version="1.0" standalone="no"?>
<!DOCTYPE svg PUBLIC "-//W3C//DTD SVG 20010904//EN"
 "http://www.w3.org/TR/2001/REC-SVG-20010904/DTD/svg10.dtd">
<svg version="1.0" xmlns="http://www.w3.org/2000/svg"
 width="512.000000pt" height="512.000000pt" viewBox="0 0 512.000000 512.000000"
 preserveAspectRatio="xMidYMid meet">

<g transform="translate(0.000000,512.000000) scale(0.100000,-0.100000)"
fill="#000000" stroke="none">
<path d="M1124 4151 c-48 -12 -133 -62 -160 -94 -32 -39 -74 -121 -74 -146 0
-30 -10 -31 -75 -9 -82 28 -165 20 -246 -23 -67 -36 -97 -68 -137 -143 l-27
-51 -3 -401 -3 -402 -47 -7 c-102 -15 -195 -84 -242 -180 -20 -42 -25 -64 -24
-135 0 -93 18 -144 73 -211 37 -44 131 -95 193 -104 l47 -7 3 -402 3 -401 34
-63 c75 -137 233 -202 376 -154 65 22 75 21 75 -10 0 -31 60 -136 94 -165 96
-81 239 -102 347 -52 68 32 120 82 157 152 l27 52 3 523 3 522 1039 0 1039 0
3 -522 3 -523 25 -50 c31 -64 91 -124 155 -155 41 -20 65 -25 135 -25 77 1 91
4 148 34 35 19 74 48 88 64 32 38 74 121 74 146 0 30 10 31 75 9 80 -27 156
-20 240 21 70 34 112 79 148 158 21 47 22 59 25 444 l3 397 47 7 c52 8 124 41
169 79 16 14 45 53 64 88 31 58 34 70 34 148 0 78 -3 90 -34 148 -51 94 -131
152 -233 167 l-47 7 -3 402 -3 401 -34 63 c-39 73 -74 105 -149 140 -75 34
-152 39 -227 14 -65 -22 -75 -21 -75 9 0 27 -35 98 -69 140 -16 19 -58 51 -93
70 -58 31 -70 34 -148 34 -70 0 -94 -5 -135 -25 -64 -31 -124 -91 -155 -155
l-25 -50 -3 -522 -3 -523 -1039 0 -1039 0 -3 523 -3 522 -27 52 c-37 69 -89
120 -156 151 -58 26 -154 37 -208 23z m164 -178 c14 -10 35 -32 46 -47 21 -27
21 -30 21 -1366 0 -1336 0 -1339 -21 -1366 -39 -53 -71 -69 -134 -69 -63 0
-95 16 -134 69 -21 27 -21 32 -24 1339 -1 722 0 1326 3 1344 7 40 49 91 90
109 40 19 120 12 153 -13z m2720 0 c14 -10 35 -32 46 -47 21 -27 21 -30 21
-1366 0 -1336 0 -1339 -21 -1366 -39 -53 -71 -69 -134 -69 -63 0 -95 16 -134
69 -21 27 -21 32 -24 1339 -1 722 0 1326 3 1344 7 40 49 91 90 109 40 19 120
12 153 -13z m-3200 -240 c14 -10 35 -32 46 -47 21 -27 21 -32 21 -1126 0
-1094 0 -1099 -21 -1126 -39 -52 -71 -69 -133 -69 -48 0 -64 5 -95 29 -70 53
-66 -18 -66 1165 0 733 3 1079 11 1098 14 37 47 72 84 89 40 19 119 12 153
-13z m3680 0 c14 -10 35 -32 46 -47 21 -27 21 -32 21 -1126 0 -1094 0 -1099
-21 -1126 -39 -53 -71 -69 -134 -69 -63 0 -95 16 -134 69 -21 27 -21 35 -24
1099 -1 590 0 1086 3 1104 7 40 49 91 90 109 40 19 120 12 153 -13z m-4088
-1173 c0 -177 1 -173 -63 -146 -125 52 -126 238 -2 292 66 29 65 31 65 -146z
m3200 0 l0 -160 -1040 0 -1040 0 0 160 0 160 1040 0 1040 0 0 -160z m1209 132
c49 -36 66 -70 66 -132 0 -44 -5 -66 -21 -86 -28 -39 -63 -63 -101 -70 l-33
-6 0 162 0 163 33 -7 c17 -3 43 -14 56 -24z"/>
</g>
</svg>
